<svg xmlns="http://www.w3.org/2000/svg" viewBox="0 0 41.66 60.31"><defs><style>.cls-1{fill:#ff5858}</style></defs><title>Datový zdroj 1</title><g id="Vrstva_2" data-name="Vrstva 2"><path class="cls-1" d="M40.36 38.71a4.9 4.9 0 0 0-6.92-.36l-.06.06-10.67 9.87a7.48 7.48 0 0 1-5.51 2 7.55 7.55 0 0 1-5.31-2.5 7.8 7.8 0 0 1 .47-10.93l4-3.67 3.31 3.65a4.9 4.9 0 0 0 6.92.36l.06-.05a5 5 0 0 0 .31-7.06l-3.31-3.64 2.75-2.56a13.87 13.87 0 0 0 .84-19.45 13.53 13.53 0 0 0-19.11-1L8 3.61a13.89 13.89 0 0 0-.84 19.45l2.52 2.78-4 3.67a17.88 17.88 0 0 0-1.08 25 17.38 17.38 0 0 0 12.17 5.79h1.56a17.38 17.38 0 0 0 11.06-4.64l10.67-9.89a5 5 0 0 0 .3-7.05M14.64 11a3.71 3.71 0 0 1 5.25.19 3.8 3.8 0 0 1-.23 5.33l-2.77 2.54-2.51-2.77a3.81 3.81 0 0 1 .26-5.29" id="LOGO"/></g></svg>