<svg xmlns="http://www.w3.org/2000/svg" viewBox="0 0 38 35"><defs><style>.cls-1{fill:#ff5858}</style></defs><title>Datový zdroj 1</title><g id="Vrstva_2" data-name="Vrstva 2"><g id="Vrstva_1-2" data-name="Vrstva 1"><path id="icon_hardware" data-name="icon hardware" class="cls-1" d="M33 28H5a5 5 0 0 1-5-5V5a5 5 0 0 1 5-5h28a5 5 0 0 1 5 5v18a5 5 0 0 1-5 5zM5 2a3 3 0 0 0-3 3v18a3 3 0 0 0 3 3h28a3 3 0 0 0 3-3V5a3 3 0 0 0-3-3zm18 33h-8a1 1 0 0 1-.76-.34 1 1 0 0 1-.23-.8l1-7A1 1 0 0 1 16 26h6a1 1 0 0 1 1 .86l1 7a1 1 0 0 1-.23.8A1 1 0 0 1 23 35zm-6.85-2h5.7l-.72-5h-4.26zM26 35H12a1 1 0 0 1 0-2h14a1 1 0 0 1 0 2zm11-13H1v-2h36z"/></g></g></svg>