<svg xmlns="http://www.w3.org/2000/svg" viewBox="0 0 24.56 23.52"><defs><style>.cls-1{fill:#aaa}</style></defs><title>Datový zdroj 1</title><g id="Vrstva_2" data-name="Vrstva 2"><g id="Vrstva_1-2" data-name="Vrstva 1"><path id="icon_linkedin" data-name="icon linkedin" class="cls-1" d="M24.56 14.43v9.09H19.3V15c0-2.14-.76-3.59-2.67-3.59a2.87 2.87 0 0 0-2.7 1.93 3.53 3.53 0 0 0-.18 1.28v8.86H8.49s.07-14.37 0-15.86h5.27v2.34-.05a5.23 5.23 0 0 1 4.74-2.62c3.5 0 6.06 2.26 6.06 7.14zM3 0a2.75 2.75 0 0 0-.47 5.48H3A2.75 2.75 0 0 0 3.39 0zM.32 23.52h5.26V7.66H.32z"/></g></g></svg>