<svg xmlns="http://www.w3.org/2000/svg" viewBox="0 0 36 34"><defs><style>.cls-1{fill:#fff}</style></defs><title>Datový zdroj 1</title><g id="Vrstva_2" data-name="Vrstva 2"><g id="Vrstva_1-2" data-name="Vrstva 1"><path id="icon_book_copy" data-name="icon book copy" class="cls-1" d="M19 30.5h-2V5h2zm0 3.5h-2v-1a3 3 0 0 0-3-3H5a5 5 0 0 1-5-5V5a5 5 0 0 1 5-5h9a5 5 0 0 1 5 5h-2a3 3 0 0 0-3-3H5a3 3 0 0 0-3 3v20a3 3 0 0 0 3 3h9a5 5 0 0 1 5 5zm0 0h-2v-1a5 5 0 0 1 5-5h9a3 3 0 0 0 3-3V5a3 3 0 0 0-3-3h-9a3 3 0 0 0-3 3h-2a5 5 0 0 1 5-5h9a5 5 0 0 1 5 5v20a5 5 0 0 1-5 5h-9a3 3 0 0 0-3 3z"/></g></g></svg>