<svg xmlns="http://www.w3.org/2000/svg" viewBox="0 0 20.84 23.49"><defs><style>.cls-1{fill:#aaa}</style></defs><title>Datový zdroj 1</title><g id="Vrstva_2" data-name="Vrstva 2"><g id="Vrstva_1-2" data-name="Vrstva 1"><path id="icon_youtube" data-name="icon youtube" class="cls-1" d="M13.47 9.16a2 2 0 0 0 1.47-.84v.74h1.27V2.38h-1.27v5.08a1.35 1.35 0 0 1-.75.5c-.27 0-.34-.18-.34-.45V2.38h-1.27V8a1 1 0 0 0 .69 1.17zM7.8 7.4a1.63 1.63 0 0 0 1.87 1.79 1.73 1.73 0 0 0 1.83-1.62V4.12a1.77 1.77 0 0 0-1.73-1.8h-.1a1.73 1.73 0 0 0-1.87 1.8zm1.31-3.17a.55.55 0 1 1 1.09 0v3.11a.55.55 0 0 1-.46.66h-.07a.57.57 0 0 1-.56-.63V4.23zM4.76 9.07H6.2V5.39L7.87 0H6.41l-.92 3.62L4.5 0H3.06l1.7 5.39zm13.16 1.52h-15A2.89 2.89 0 0 0 0 13.44v7.2a2.89 2.89 0 0 0 2.92 2.85h15a2.88 2.88 0 0 0 2.92-2.84v-7.2a2.88 2.88 0 0 0-2.91-2.85zm-13 10.77H3.55V14H2.14v-1.27h4.19V14H4.92v7.38zm4.86 0H8.56v-.7a2.6 2.6 0 0 1-.69.59 1 1 0 0 1-1.56-.93V15h1.22v4.88c0 .26.06.43.32.43a1.22 1.22 0 0 0 .71-.48V15h1.22v6.37zM14.44 20a1.16 1.16 0 0 1-.89 1.37h-.22a1.4 1.4 0 0 1-1.15-.57v.49H11v-8.56h1.22v2.78a1.47 1.47 0 0 1 1.08-.6c.89 0 1.18.73 1.18 1.6V20zm4.48-1.72H16.6v1.2c0 .48.05.89.53.89s.55-.34.55-.89v-.44h1.24v.48a1.68 1.68 0 0 1-1.81 2 1.73 1.73 0 0 1-1.75-2v-2.81A1.77 1.77 0 0 1 17 14.83h.19a1.63 1.63 0 0 1 1.72 1.87v1.62zm-1.77-2.38c-.45 0-.55.31-.55.75v.64h1.08v-.64c0-.43-.1-.75-.53-.75zm-4.72 0a.92.92 0 0 0-.25.19v4a1.15 1.15 0 0 0 .29.22.52.52 0 0 0 .62-.07.72.72 0 0 0 .1-.44v-3.22a.76.76 0 0 0-.13-.49.51.51 0 0 0-.63-.1z"/></g></g></svg>