<svg xmlns="http://www.w3.org/2000/svg" viewBox="0 0 22 36"><defs><style>.cls-1{fill:#ff5858}</style></defs><title>Datový zdroj 1</title><g id="Vrstva_2" data-name="Vrstva 2"><g id="Vrstva_1-2" data-name="Vrstva 1"><path id="icon_phone" data-name="icon phone" class="cls-1" d="M17 36H5a5 5 0 0 1-5-5V5a5 5 0 0 1 5-5h12a5 5 0 0 1 5 5v26a5 5 0 0 1-5 5zM5 2a3 3 0 0 0-3 3v26a3 3 0 0 0 3 3h12a3 3 0 0 0 3-3V5a3 3 0 0 0-3-3zm6 31a2 2 0 1 1 2-2 2 2 0 0 1-2 2zm0-2zm2-26H9a1 1 0 0 1 0-2h4a1 1 0 0 1 0 2z"/></g></g></svg>