<svg xmlns="http://www.w3.org/2000/svg" viewBox="0 0 23.07 23.13"><defs><style>.cls-1{fill:#aaa}</style></defs><title>Datový zdroj 1</title><g id="Vrstva_2" data-name="Vrstva 2"><g id="Vrstva_1-2" data-name="Vrstva 1"><path id="icon_instagram" data-name="icon instagram" class="cls-1" d="M11.55 7.73a3.85 3.85 0 1 1-3.84 3.86 3.85 3.85 0 0 1 3.84-3.85m0-1.93a5.78 5.78 0 1 0 5.77 5.8 5.77 5.77 0 0 0-5.77-5.81zm6.15-1.93a1.54 1.54 0 1 1-1.54 1.55 1.54 1.54 0 0 1 1.54-1.56zm-1.16-1.95a4.63 4.63 0 0 1 4.61 4.63v10a4.62 4.62 0 0 1-4.61 4.63h-10a4.62 4.62 0 0 1-4.61-4.63v-10a4.63 4.63 0 0 1 4.61-4.63h10m0-1.93h-10A6.56 6.56 0 0 0 0 6.55v10a6.56 6.56 0 0 0 6.54 6.55h10a6.56 6.56 0 0 0 6.54-6.55v-10A6.56 6.56 0 0 0 16.54 0z"/></g></g></svg>