<svg xmlns="http://www.w3.org/2000/svg" viewBox="0 0 34 35.99"><defs><style>.cls-1{fill:#ff5858}</style></defs><title>Datový zdroj 1</title><g id="Vrstva_2" data-name="Vrstva 2"><g id="Vrstva_1-2" data-name="Vrstva 1"><path id="icon_office" data-name="icon office" class="cls-1" d="M32 36h-9a2 2 0 0 1-2-2V21h-8v13a2 2 0 0 1-2 2H2a2 2 0 0 1-2-2V13.46a2 2 0 0 1 .74-1.55L14.16 1a4.51 4.51 0 0 1 5.68 0l13.42 10.91a2 2 0 0 1 .74 1.55V34a2 2 0 0 1-2 2zM13 19h8a2 2 0 0 1 2 2v13h9V13.46L18.58 2.55a2.52 2.52 0 0 0-3.15 0L2 13.46V34h9V21a2 2 0 0 1 2-2z"/></g></g></svg>