<svg xmlns="http://www.w3.org/2000/svg" width="30" height="36" viewBox="0 0 30 36"><defs><style>.cls-1{fill:#ff5858;fill-rule:evenodd}</style></defs><path class="cls-1" d="M15 21.13a6.035 6.035 0 1 1 6-6.03 6.025 6.025 0 0 1-6 6.03zm0-10.06a4.025 4.025 0 1 0 4 4.03 4.021 4.021 0 0 0-4-4.03zM15 36a.984.984 0 0 1-.707-.3L4.083 25.43a14.976 14.976 0 1 1 21.857-.02L15.707 35.7A.984.984 0 0 1 15 36zm0-33.98A13.088 13.088 0 0 0 3.122 20.41a12.926 12.926 0 0 0 2.4 3.62l9.481 9.54 9.5-9.56a13.093 13.093 0 0 0 3.5-8.91A13.057 13.057 0 0 0 15 2.02z"/></svg>