<svg id="LOGO" xmlns="http://www.w3.org/2000/svg" width="155.625" height="60.313" viewBox="0 0 155.625 60.313"><defs><style>.cls-1,.cls-2{fill-rule:evenodd}.cls-2{fill:#ff5858}</style></defs><path id="Mobile_Academy" data-name="Mobile Academy" class="cls-1" d="M433.6 66.91l.454-12.531 4.486 12.531h1.2l4.277-12.626.537 12.626h2.046l-.816-15.758h-2.272l-4.362 12.331-4.442-12.331h-2.272l-.765 15.758h1.929zm24.753.137a4.051 4.051 0 0 0 2.706-1.219 5.551 5.551 0 0 0 .95-3.007q.114-1.23.114-5.12 0-1.377-.1-2.339a7.765 7.765 0 0 0-.367-1.74 3.743 3.743 0 0 0-.687-1.256 3.292 3.292 0 0 0-1.1-.8 5.564 5.564 0 0 0-1.575-.447 15.49 15.49 0 0 0-2.138-.126 16.141 16.141 0 0 0-2.237.131 4.906 4.906 0 0 0-1.6.494 3.337 3.337 0 0 0-1.084.867 3.915 3.915 0 0 0-.641 1.388 10.385 10.385 0 0 0-.325 1.913q-.082 1.031-.083 2.586 0 1.293.006 1.976t.051 1.64q.046.957.119 1.414t.227 1.1a2.535 2.535 0 0 0 .372.925q.218.278.553.662a1.7 1.7 0 0 0 .754.52q.418.137 1.007.3a6.216 6.216 0 0 0 1.286.2q.7.042 1.6.042a17.721 17.721 0 0 0 2.2-.116zm.305-14.213a2.454 2.454 0 0 1 .676.3 1.174 1.174 0 0 1 .387.52 2.694 2.694 0 0 1 .2.72q.046.369.067 1 .03 2.081.031 4.205v.978q0 .368-.019.933c-.007.375-.02.684-.041.925s-.048.513-.083.815a4.683 4.683 0 0 1-.134.741q-.082.289-.191.573a1.335 1.335 0 0 1-.269.452.948.948 0 0 1-.356.242 12.726 12.726 0 0 1-5.537 0q-.692-.252-.939-1.892a34.39 34.39 0 0 1-.155-4.058q0-1.965.031-3.911c.013-.42.036-.753.067-1a2.692 2.692 0 0 1 .2-.72 1.189 1.189 0 0 1 .387-.52 2.462 2.462 0 0 1 .677-.3 4.567 4.567 0 0 1 1.028-.179q.588-.042 1.477-.042t1.477.042a4.577 4.577 0 0 1 1.022.175zm18.395 8.389a5.061 5.061 0 0 0-.217-1.009 2.367 2.367 0 0 0-.46-.852 2.451 2.451 0 0 0-.8-.578 3.7 3.7 0 0 0-1.209-.315 5.255 5.255 0 0 0 .945-.247 2.275 2.275 0 0 0 .625-.352 1.264 1.264 0 0 0 .388-.578 3.8 3.8 0 0 0 .181-.82 10.8 10.8 0 0 0 .051-1.167l-.01-1.136a3.6 3.6 0 0 0-.279-1.472 1.9 1.9 0 0 0-.863-.894 4.322 4.322 0 0 0-1.363-.436 12.855 12.855 0 0 0-1.937-.121h-5.846V66.91h5.516q.743 0 1.234-.01t1.023-.052a7.726 7.726 0 0 0 .852-.105 4.114 4.114 0 0 0 .666-.194 1.755 1.755 0 0 0 .532-.294 2.845 2.845 0 0 0 .387-.431 1.833 1.833 0 0 0 .3-.573 7.039 7.039 0 0 0 .175-.747 8.419 8.419 0 0 0 .119-.94q.036-.5.047-1.162a11.649 11.649 0 0 0-.054-1.179zm-2.541-4.71a1.161 1.161 0 0 1-.129.588 1.2 1.2 0 0 1-.537.415 3.874 3.874 0 0 1-1.245.273q-.837.079-2.19.079h-2.076v-5.024h3.9a7.332 7.332 0 0 1 .831.047c.279.032.484.056.615.073a.907.907 0 0 1 .4.169 1.057 1.057 0 0 1 .258.226 1.152 1.152 0 0 1 .114.353 2.234 2.234 0 0 1 .057.452v2.35zm.568 6.78a2.81 2.81 0 0 1-.18 1.207 1.281 1.281 0 0 1-.806.615 6.016 6.016 0 0 1-1.807.2h-3.946v-6.069h2.779a11.114 11.114 0 0 1 3.14.284 1.078 1.078 0 0 1 .712.789 10.852 10.852 0 0 1 .093 1.577zm8.03-12.047h-2.1V66.91h2.1V51.246zM495.688 65.3h-5.929V51.246h-2.1V66.91h7.819zm12.275 0h-6.827v-5.7h5.753v-1.7h-5.753v-5.035h6.734l-.206-1.619h-8.625V66.91h8.718zm-52.8 22.845l-.015.226c0 .056-.009.134-.016.231q-.041.673-.077.952a4.91 4.91 0 0 1-.155.688 1.017 1.017 0 0 1-.315.552 3.631 3.631 0 0 1-.568.315 2.734 2.734 0 0 1-.92.221q-.548.048-1.353.047a10.423 10.423 0 0 1-2.329-.2 2.089 2.089 0 0 1-1.105-.536 1.625 1.625 0 0 1-.336-.935q-.093-1.924-.093-3.942 0-2.891.093-5.667a2.236 2.236 0 0 1 .119-.646 1.028 1.028 0 0 1 .326-.451 2.048 2.048 0 0 1 .491-.294 2.841 2.841 0 0 1 .723-.168c.306-.038.613-.063.919-.074s.7-.016 1.183-.016h.785c.179 0 .39.01.635.031a4.3 4.3 0 0 1 .527.068 2.867 2.867 0 0 1 .4.132.832.832 0 0 1 .325.2c.058.07.136.174.232.31a1.14 1.14 0 0 1 .191.421l.124.562a6.592 6.592 0 0 1 .119.7q.042.357.093.894l1.808-.358a11.945 11.945 0 0 0-.228-1.676 4.514 4.514 0 0 0-.439-1.215 3.009 3.009 0 0 0-.655-.835 2.808 2.808 0 0 0-.951-.515 5.735 5.735 0 0 0-1.239-.263 15.932 15.932 0 0 0-1.6-.069q-.909 0-1.6.032a8.045 8.045 0 0 0-1.286.157q-.6.126-1.017.247a1.96 1.96 0 0 0-.77.436 5.191 5.191 0 0 0-.568.583 2.5 2.5 0 0 0-.388.82 7.868 7.868 0 0 0-.247 1.015q-.078.463-.13 1.3t-.056 1.565q-.011.715-.011 1.892 0 1.114.011 1.745t.056 1.472a10.705 10.705 0 0 0 .129 1.282q.082.442.243 1.025a2.38 2.38 0 0 0 .393.867q.232.284.578.641a1.982 1.982 0 0 0 .8.51q.45.153 1.054.316a6.852 6.852 0 0 0 1.338.21q.725.05 1.654.05a13.939 13.939 0 0 0 1.658-.084 4.986 4.986 0 0 0 1.239-.3 2.735 2.735 0 0 0 .9-.562 2.8 2.8 0 0 0 .594-.9 5.574 5.574 0 0 0 .367-1.267 14.755 14.755 0 0 0 .175-1.719l-1.8-.274q-.004.111-.014.253zm13.3.594l1.167 4.005h2.128l-4.608-15.661h-2.8l-4.72 15.664h2.014l1.126-4.005.444-1.514 1.384-4.8q.454-1.566 1.053-3.742l1.075 3.848 1.3 4.7zm17.889-7.5a7.046 7.046 0 0 0-.372-1.688 3.48 3.48 0 0 0-.7-1.2 3.263 3.263 0 0 0-1.131-.751 5.962 5.962 0 0 0-1.606-.41 18.475 18.475 0 0 0-2.2-.11h-5.33v15.666h3.739q1.2 0 1.978-.016a14.655 14.655 0 0 0 1.591-.121q.81-.105 1.286-.21a3.184 3.184 0 0 0 .971-.41 3.056 3.056 0 0 0 .738-.594 3.614 3.614 0 0 0 .5-.883 5.042 5.042 0 0 0 .346-1.162q.093-.567.176-1.54t.1-1.9q.015-.93.015-2.371a22.341 22.341 0 0 0-.102-2.294zm-1.978 4.983q0 .925-.031 1.577a6.706 6.706 0 0 1-.156 1.201 6.888 6.888 0 0 1-.248.873 1.373 1.373 0 0 1-.444.589 2.708 2.708 0 0 1-.594.379 3.258 3.258 0 0 1-.852.194q-.579.074-1.074.089t-1.384.016h-2.479V78.7h2.169q.992 0 1.683.026a5.649 5.649 0 0 1 1.256.179q.563.153.908.252a1.128 1.128 0 0 1 .605.467 5.3 5.3 0 0 1 .377.6 2.887 2.887 0 0 1 .186.878q.066.642.072 1.067t0 1.393v2.66zm15.137 4.909h-6.828v-5.7h5.753v-1.7h-5.753V78.7h6.735l-.207-1.619h-8.625v15.665h8.714zm5.044 1.609l.455-12.531 4.483 12.531h1.2l4.276-12.626.531 12.632h2.046l-.816-15.759h-2.27l-4.36 12.332-4.44-12.332h-2.273l-.764 15.759h1.931zm24.227-15.664l-3.42 8.024-3.357-8.021h-2.283l4.524 10.221v5.446h2.087V87.3l4.658-10.218h-2.21zm-94.166 10.051l-.486 1.614-1.13 4.005h-2.01l4.72-15.664h2.8l4.607 15.664h-2.128l-1.167-4.005-.434-1.514-1.3-4.7-1.074-3.848q-.6 2.176-1.054 3.742l-1.384 4.8" transform="translate(-375.375 -42.688)"/><path class="cls-2" d="M415.7 81.4a4.9 4.9 0 0 0-6.981-.308l-10.671 9.878a7.477 7.477 0 0 1-5.509 2.03 7.555 7.555 0 0 1-5.311-2.5 7.8 7.8 0 0 1 .471-10.935l3.965-3.674 3.311 3.655a4.9 4.9 0 0 0 6.979.307 5.034 5.034 0 0 0 .308-7.058l-3.308-3.641 2.747-2.561a13.874 13.874 0 0 0 .843-19.448A13.533 13.533 0 0 0 383.3 46.3a13.889 13.889 0 0 0-.837 19.453l2.525 2.778-3.967 3.669a17.879 17.879 0 0 0-1.078 25.049 17.376 17.376 0 0 0 12.164 5.736c.529.019 1.039.019 1.56 0a17.378 17.378 0 0 0 11.061-4.64l10.672-9.888a5.026 5.026 0 0 0 .3-7.054M389.979 53.66a3.712 3.712 0 0 1 5.281.233 3.8 3.8 0 0 1-.233 5.335l-2.766 2.542-2.513-2.77a3.812 3.812 0 0 1 .231-5.336" transform="translate(-375.375 -42.688)"/></svg>