<svg xmlns="http://www.w3.org/2000/svg" width="36" height="30" viewBox="0 0 36 30">
  <metadata><?xpacket begin="﻿" id="W5M0MpCehiHzreSzNTczkc9d"?>
<x:xmpmeta xmlns:x="adobe:ns:meta/" x:xmptk="Adobe XMP Core 5.6-c138 79.159824, 2016/09/14-01:09:01        ">
   <rdf:RDF xmlns:rdf="http://www.w3.org/1999/02/22-rdf-syntax-ns#">
      <rdf:Description rdf:about=""/>
   </rdf:RDF>
</x:xmpmeta>
                                                                                                    
                                                                                                    
                                                                                                    
                                                                                                    
                                                                                                    
                                                                                                    
                                                                                                    
                                                                                                    
                                                                                                    
                                                                                                    
                                                                                                    
                                                                                                    
                                                                                                    
                                                                                                    
                                                                                                    
                                                                                                    
                                                                                                    
                                                                                                    
                                                                                                    
                                                                                                    
                           
<?xpacket end="w"?></metadata>
<defs>
    <style>
      .cls-1 {
        fill: #ff5858;
        fill-rule: evenodd;
      }
    </style>
  </defs>
  <path class="cls-1" d="M1212,4381h-26a5,5,0,0,1-5-5v-20a5,5,0,0,1,5-5h26a5,5,0,0,1,5,5v20A5,5,0,0,1,1212,4381Zm-26-28a3.009,3.009,0,0,0-3,3v20a3.009,3.009,0,0,0,3,3h26a3.009,3.009,0,0,0,3-3v-20a3.009,3.009,0,0,0-3-3h-26Zm13,14.16-17.51-10.3,1.02-1.72,16.49,9.7,16.49-9.7,1.02,1.72Z" transform="translate(-1181 -4351)"/>
</svg>
