<svg xmlns="http://www.w3.org/2000/svg" width="30" height="36" viewBox="0 0 30 36">
  <metadata><?xpacket begin="﻿" id="W5M0MpCehiHzreSzNTczkc9d"?>
<x:xmpmeta xmlns:x="adobe:ns:meta/" x:xmptk="Adobe XMP Core 5.6-c138 79.159824, 2016/09/14-01:09:01        ">
   <rdf:RDF xmlns:rdf="http://www.w3.org/1999/02/22-rdf-syntax-ns#">
      <rdf:Description rdf:about=""/>
   </rdf:RDF>
</x:xmpmeta>
                                                                                                    
                                                                                                    
                                                                                                    
                                                                                                    
                                                                                                    
                                                                                                    
                                                                                                    
                                                                                                    
                                                                                                    
                                                                                                    
                                                                                                    
                                                                                                    
                                                                                                    
                                                                                                    
                                                                                                    
                                                                                                    
                                                                                                    
                                                                                                    
                                                                                                    
                                                                                                    
                           
<?xpacket end="w"?></metadata>
<defs>
    <style>
      .cls-1 {
        fill: #ff5858;
        fill-rule: evenodd;
      }
    </style>
  </defs>
  <path class="cls-1" d="M960,4370.13a6.035,6.035,0,1,1,6-6.03A6.025,6.025,0,0,1,960,4370.13Zm0-10.06a4.025,4.025,0,1,0,4,4.03A4.021,4.021,0,0,0,960,4360.07Zm0,24.93a0.984,0.984,0,0,1-.707-0.3l-10.21-10.27a14.976,14.976,0,1,1,21.857-.02l-10.233,10.29A0.984,0.984,0,0,1,960,4385Zm0-33.98a13.088,13.088,0,0,0-11.878,18.39,12.926,12.926,0,0,0,2.4,3.62l9.481,9.54,9.5-9.56a13.093,13.093,0,0,0,3.5-8.91A13.057,13.057,0,0,0,960,4351.02Z" transform="translate(-945 -4349)"/>
</svg>
