<svg xmlns="http://www.w3.org/2000/svg" viewBox="0 0 22 36"><defs><style>.cls-1{fill:#ff5858;}</style></defs><title>Datový zdroj 1</title><g id="Vrstva_2" data-name="Vrstva 2"><g id="Vrstva_1-2" data-name="Vrstva 1"><path id="icon_phone" data-name="icon phone" class="cls-1" d="M17,36H5a5,5,0,0,1-5-5V5A5,5,0,0,1,5,0H17a5,5,0,0,1,5,5V31A5,5,0,0,1,17,36ZM5,2A3,3,0,0,0,2,5V31a3,3,0,0,0,3,3H17a3,3,0,0,0,3-3V5a3,3,0,0,0-3-3Zm6,31a2,2,0,1,1,2-2A2,2,0,0,1,11,33Zm0-2ZM13,5H9A1,1,0,0,1,9,3h4a1,1,0,0,1,0,2Z"/></g></g></svg>