<svg xmlns="http://www.w3.org/2000/svg" viewBox="0 0 24.56 23.52"><defs><style>.cls-1{fill:#aaa;}</style></defs><title>Datový zdroj 1</title><g id="Vrstva_2" data-name="Vrstva 2"><g id="Vrstva_1-2" data-name="Vrstva 1"><path id="icon_linkedin" data-name="icon linkedin" class="cls-1" d="M24.56,14.43v9.09H19.3V15c0-2.14-.76-3.59-2.67-3.59a2.87,2.87,0,0,0-2.7,1.93,3.53,3.53,0,0,0-.18,1.28v8.86H8.49s.07-14.37,0-15.86h5.27V9.91l0,.05h0V9.91A5.23,5.23,0,0,1,18.5,7.29C22,7.29,24.56,9.55,24.56,14.43ZM3,0a2.75,2.75,0,0,0-.47,5.48H3A2.75,2.75,0,0,0,3.39,0ZM.32,23.52H5.58V7.66H.32Z"/></g></g></svg>