<svg xmlns="http://www.w3.org/2000/svg" viewBox="0 0 20.84 23.49"><defs><style>.cls-1{fill:#aaa;}</style></defs><title>Datový zdroj 1</title><g id="Vrstva_2" data-name="Vrstva 2"><g id="Vrstva_1-2" data-name="Vrstva 1"><path id="icon_youtube" data-name="icon youtube" class="cls-1" d="M13.47,9.16a2,2,0,0,0,1.47-.84v.74h1.27V2.38H14.94V7.46a1.35,1.35,0,0,1-.75.5c-.27,0-.34-.18-.34-.45V2.38H12.58V8a1,1,0,0,0,.69,1.17ZM7.8,7.4A1.63,1.63,0,0,0,9.67,9.19,1.73,1.73,0,0,0,11.5,7.57q0-.09,0-.17V4.12a1.77,1.77,0,0,0-1.73-1.8h-.1A1.73,1.73,0,0,0,7.8,4.12ZM9.11,4.23a.55.55,0,1,1,1.09,0V7.34A.55.55,0,0,1,9.74,8H9.67a.57.57,0,0,1-.56-.63V4.23ZM4.76,9.07H6.2V5.39L7.87,0H6.41L5.49,3.62,4.5,0H3.06l1.7,5.39Zm13.16,1.52h-15A2.89,2.89,0,0,0,0,13.44v7.2a2.89,2.89,0,0,0,2.92,2.85h15a2.88,2.88,0,0,0,2.92-2.84h0v-7.2a2.88,2.88,0,0,0-2.91-2.85h0Zm-13,10.77H3.55V14H2.14V12.73H6.33V14H4.92v7.38Zm4.86,0H8.56v-.7a2.6,2.6,0,0,1-.69.59,1,1,0,0,1-1.56-.93V15H7.53v4.88c0,.26.06.43.32.43a1.22,1.22,0,0,0,.71-.48V15H9.78v6.37ZM14.44,20a1.16,1.16,0,0,1-.89,1.37l-.22,0a1.4,1.4,0,0,1-1.15-.57v.49H11V12.73h1.22v2.78a1.47,1.47,0,0,1,1.08-.6c.89,0,1.18.73,1.18,1.6V20Zm4.48-1.72H16.6v1.2c0,.48.05.89.53.89s.55-.34.55-.89v-.44h1.24v.48a1.68,1.68,0,0,1-1.81,2,1.73,1.73,0,0,1-1.75-2V16.71A1.77,1.77,0,0,1,17,14.83h.19a1.63,1.63,0,0,1,1.72,1.87v1.62Zm-1.77-2.38c-.45,0-.55.31-.55.75v.64h1.08v-.64c0-.43-.1-.75-.53-.75Zm-4.72,0a.92.92,0,0,0-.25.19v4a1.15,1.15,0,0,0,.29.22.52.52,0,0,0,.62-.07.72.72,0,0,0,.1-.44V16.58a.76.76,0,0,0-.13-.49.51.51,0,0,0-.63-.1Z"/></g></g></svg>