<svg xmlns="http://www.w3.org/2000/svg" width="22" height="36" viewBox="0 0 22 36">
  <metadata><?xpacket begin="﻿" id="W5M0MpCehiHzreSzNTczkc9d"?>
<x:xmpmeta xmlns:x="adobe:ns:meta/" x:xmptk="Adobe XMP Core 5.6-c138 79.159824, 2016/09/14-01:09:01        ">
   <rdf:RDF xmlns:rdf="http://www.w3.org/1999/02/22-rdf-syntax-ns#">
      <rdf:Description rdf:about=""/>
   </rdf:RDF>
</x:xmpmeta>
                                                                                                    
                                                                                                    
                                                                                                    
                                                                                                    
                                                                                                    
                                                                                                    
                                                                                                    
                                                                                                    
                                                                                                    
                                                                                                    
                                                                                                    
                                                                                                    
                                                                                                    
                                                                                                    
                                                                                                    
                                                                                                    
                                                                                                    
                                                                                                    
                                                                                                    
                                                                                                    
                           
<?xpacket end="w"?></metadata>
<defs>
    <style>
      .cls-1 {
        fill: #ff5858;
        fill-rule: evenodd;
      }
    </style>
  </defs>
  <path class="cls-1" d="M725,4384H713a5,5,0,0,1-5-5v-26a5,5,0,0,1,5-5h12a5,5,0,0,1,5,5v26A5,5,0,0,1,725,4384Zm-12-34a3.006,3.006,0,0,0-3,3v26a3.006,3.006,0,0,0,3,3h12a3.006,3.006,0,0,0,3-3v-26a3.006,3.006,0,0,0-3-3H713Zm6,31a2,2,0,1,1,2-2A2,2,0,0,1,719,4381Zm0-2h0Zm2-26h-4a1,1,0,0,1,0-2h4A1,1,0,0,1,721,4353Z" transform="translate(-708 -4348)"/>
</svg>
