<svg xmlns="http://www.w3.org/2000/svg" viewBox="0 0 28.1 22.61"><defs><style>.cls-1{fill:#aaa;}</style></defs><title>icon twitter</title><g id="Vrstva_2" data-name="Vrstva 2"><g id="Vrstva_1-2" data-name="Vrstva 1"><path id="icon_twitter" data-name="icon twitter" class="cls-1" d="M0,20A16.43,16.43,0,0,0,8.84,22.6a16.22,16.22,0,0,0,16.41-16q0-.47,0-.95a11.65,11.65,0,0,0,2.87-3,11.51,11.51,0,0,1-3.31.9A5.73,5.73,0,0,0,27.33.42,11.7,11.7,0,0,1,23.67,1.8,5.8,5.8,0,0,0,19.46,0a5.73,5.73,0,0,0-5.62,7A16.41,16.41,0,0,1,2,1,5.68,5.68,0,0,0,3.74,8.67,5.81,5.81,0,0,1,1.13,8a5.73,5.73,0,0,0,4.62,5.67,5.83,5.83,0,0,1-2.6.1,5.76,5.76,0,0,0,5.39,4A11.69,11.69,0,0,1,0,20Z"/></g></g></svg>