<svg xmlns="http://www.w3.org/2000/svg" viewBox="0 0 36 34"><defs><style>.cls-1{fill:#fff;}</style></defs><title>Datový zdroj 1</title><g id="Vrstva_2" data-name="Vrstva 2"><g id="Vrstva_1-2" data-name="Vrstva 1"><path id="icon_book_copy" data-name="icon book copy" class="cls-1" d="M19,30.5H17V5h2ZM19,34H17V33a3,3,0,0,0-3-3H5a5,5,0,0,1-5-5V5A5,5,0,0,1,5,0h9a5,5,0,0,1,5,5H17a3,3,0,0,0-3-3H5A3,3,0,0,0,2,5V25a3,3,0,0,0,3,3h9a5,5,0,0,1,5,5Zm0,0H17V33a5,5,0,0,1,5-5h9a3,3,0,0,0,3-3V5a3,3,0,0,0-3-3H22a3,3,0,0,0-3,3H17a5,5,0,0,1,5-5h9a5,5,0,0,1,5,5V25a5,5,0,0,1-5,5H22a3,3,0,0,0-3,3Z"/></g></g></svg>