<svg xmlns="http://www.w3.org/2000/svg" viewBox="0 0 36 36"><defs><style>.cls-1{fill:#ff5858;}</style></defs><title>Datový zdroj 1</title><g id="Vrstva_2" data-name="Vrstva 2"><g id="Vrstva_1-2" data-name="Vrstva 1"><path id="icon_speaker" data-name="icon speaker" class="cls-1" d="M18,25c-3.23,0-6.67-3.25-8.18-7.65A4,4,0,0,1,7.5,13.72,4.17,4.17,0,0,1,9.07,9.9C9.37,4.91,10.8,0,18,0s8.63,4.91,8.93,9.9a4.16,4.16,0,0,1,1.57,3.81,4,4,0,0,1-2.31,3.64C24.67,21.75,21.23,25,18,25ZM18,2c-4.86,0-6.68,2.25-7,8.6l0,.75-.73.18a2,2,0,0,0-.78,2.05c.09,1.17.71,1.9,1.11,1.91h.73l.21.7C12.8,20.4,15.88,23,18,23s5.2-2.6,6.45-6.8l.21-.7h.73c.4,0,1-.74,1.11-1.92a2,2,0,0,0-.78-2L25,11.35l0-.75C24.68,4.25,22.86,2,18,2Zm0,34C11.33,36,4.82,34.84.59,32.91A1,1,0,0,1,0,32c0-6.46,4-10.66,11.77-12.47l.45,1.94C5.53,23,2.26,26.18,2,31.35,6,33,11.92,34,18,34s12-1,16-2.65c-.25-5.17-3.51-8.32-10.21-9.88l.45-1.94C32,21.34,36,25.54,36,32a1,1,0,0,1-.59.91C31.18,34.84,24.67,36,18,36Z"/></g></g></svg>