<svg xmlns="http://www.w3.org/2000/svg" viewBox="0 0 38 35"><defs><style>.cls-1{fill:#ff5858;}</style></defs><title>Datový zdroj 1</title><g id="Vrstva_2" data-name="Vrstva 2"><g id="Vrstva_1-2" data-name="Vrstva 1"><path id="icon_hardware" data-name="icon hardware" class="cls-1" d="M33,28H5a5,5,0,0,1-5-5V5A5,5,0,0,1,5,0H33a5,5,0,0,1,5,5V23A5,5,0,0,1,33,28ZM5,2A3,3,0,0,0,2,5V23a3,3,0,0,0,3,3H33a3,3,0,0,0,3-3V5a3,3,0,0,0-3-3ZM23,35H15a1,1,0,0,1-.76-.34,1,1,0,0,1-.23-.8l1-7A1,1,0,0,1,16,26h6a1,1,0,0,1,1,.86l1,7a1,1,0,0,1-.23.8A1,1,0,0,1,23,35Zm-6.85-2h5.7l-.72-5H16.87ZM26,35H12a1,1,0,0,1,0-2H26a1,1,0,0,1,0,2ZM37,22H1V20H37Z"/></g></g></svg>